<svg width="100%" height="100%" viewBox="0 0 558 917" fill="none" xmlns="http://www.w3.org/2000/svg">
<path fill-rule="evenodd" clip-rule="evenodd" d="M126.256 731.956L503.409 476.963C503.409 476.963 652.978 684.135 454.65 821.037C307.108 922.883 126.256 731.956 126.256 731.956Z" fill="#024785" fill-opacity="0.3"/>
<path fill-rule="evenodd" clip-rule="evenodd" d="M421.67 48.2784C421.67 74.937 400.082 96.5568 373.447 96.5568C346.811 96.5568 325.223 74.937 325.223 48.2784C325.223 21.6127 346.811 0 373.447 0C400.082 0 421.67 21.6127 421.67 48.2784Z" fill="#024785" fill-opacity="0.3"/>
<path fill-rule="evenodd" clip-rule="evenodd" d="M134.392 849.091C134.392 886.241 104.308 916.366 67.1922 916.366C30.0837 916.366 0 886.241 0 849.091C0 811.933 30.0837 781.815 67.1922 781.815C104.308 781.815 134.392 803.571 134.392 849.091Z" fill="#024785" fill-opacity="0.3"/>
</svg>
