<svg width="100%" height="100%" viewBox="0 0 658 584" fill="none" xmlns="http://www.w3.org/2000/svg">
<path d="M365.71 303.743C334.254 303.67 302.799 303.628 271.343 303.502C269.034 303.491 267.396 304.752 265.602 305.728C216.975 332.345 167.057 356.041 113.854 372.153C89.6718 379.474 65.1118 384.243 39.6596 384.222C17.9229 384.201 1.68596 394.284 -9.16665 413.222C-13.155 420.176 -15.4641 428.022 -20.6175 434.355C-21.1633 435.028 -20.9954 436.372 -20.9954 437.412C-21.0059 485.886 -20.9954 534.36 -20.9744 582.824C-20.9744 583.17 -20.8484 583.507 -20.7854 583.853C-32.6666 583.853 -44.5583 583.853 -56.4395 583.853C-56.5235 581.942 -56.6914 580.019 -56.6914 578.108C-56.6914 387.341 -56.6809 196.575 -56.6599 5.80871C-56.6599 3.88655 -56.513 1.97489 -56.429 0.0527344C-44.5478 0.0527344 -32.6561 0.0527344 -20.7749 0.0527344C-20.8484 1.27115 -20.9849 2.48957 -20.9849 3.70799C-20.9954 81.3926 -20.9954 159.077 -20.9744 236.762C-20.9744 237.529 -21.3942 238.495 -20.2187 239.199C-11.9585 233.558 -4.07621 227.813 1.91687 219.179C19.8436 193.329 38.715 168.142 58.0481 143.311C72.5428 124.688 87.0059 106.013 103.652 89.2073C108.375 84.4386 113.592 80.6258 120.162 78.5356C132.694 74.5547 145.614 73.2733 158.587 72.37C192.824 69.9962 227.04 71.7293 261.277 72.7166C285.376 73.4099 307.941 78.252 328.797 90.5727C333.446 93.3142 338.379 95.5724 343.186 98.0513C341.087 103.566 338.694 108.975 336.952 114.605C332.921 127.629 331.767 141.158 330.612 154.666C323.475 151.168 316.359 147.607 309.18 144.204C307.774 143.542 306.43 141.715 304.53 143.238C304.803 143.112 305.066 142.975 305.318 142.839C305.202 142.692 305.087 142.555 304.982 142.408C304.845 142.692 304.709 142.975 304.572 143.259C308.498 146.105 310.691 150.338 313.221 154.246C319.371 163.751 325.364 173.352 331.42 182.92C335.073 188.613 336.752 194.653 334.58 201.344C332.585 204.432 330.423 207.247 327.212 209.326C308.666 221.29 286.667 216.553 274.743 197.909C272.865 194.968 271.059 191.974 269.16 189.044C264.122 181.324 257.814 174.791 249.889 170.085C232.645 159.844 215.233 149.876 197.957 139.677C195.952 138.49 194.661 138.532 192.961 140.087C177.091 154.634 169.492 172.868 171.707 194.065C173.543 211.627 186.883 221.174 201.126 229.115C203.897 230.659 206.878 232.277 209.943 232.77C226.704 235.501 243.76 235.869 260.574 235.354C287.517 234.514 314.228 236.174 340.972 238.505L340.951 238.484C340.772 239.377 341.486 239.178 341.948 239.293C345.863 241.898 349.841 244.387 353.661 247.118C366.991 256.635 374.222 270.111 377.518 285.73C379.785 296.664 376.038 301.758 365.71 303.743Z" fill="#F4F6FA"/>
<path d="M502.564 317.114C524.573 320.98 546.583 324.876 568.603 328.679C572.759 329.393 576.727 330.506 580.621 332.134C605.905 342.68 631.21 353.152 656.515 363.635C657.764 364.149 659.045 364.58 660.735 365.2C660.735 363.026 660.735 361.313 660.735 359.601C660.735 241.677 660.735 123.754 660.745 5.81916C660.745 3.89701 660.85 1.97485 660.903 0.0526897C667.2 0.0526897 673.487 0.147222 679.774 0.000171726C681.6 -0.0418427 682.23 0.325783 681.894 2.16391C681.737 3.0147 681.873 3.90751 681.873 4.77931C681.873 196.228 681.863 387.677 681.968 579.126C681.968 583.065 681.107 584.242 677.139 583.948C671.745 583.559 666.308 583.853 660.892 583.853C660.84 563.045 660.661 542.238 660.829 521.43C660.861 517.25 659.958 515.863 655.508 515.737C596.669 514.046 537.808 512.702 479.011 510.002C454.283 508.868 429.44 508.395 404.817 505.265C393.513 503.826 384.182 499.005 376.51 490.067C363.988 475.477 349.924 462.306 336.133 448.913C328.754 441.75 328.995 434.681 336.783 427.938C351.183 415.459 372.227 415.638 386.512 428.589C394.279 435.626 401.92 442.832 409.235 450.331C412.846 454.029 416.887 455.604 421.799 455.615C432.452 455.636 443.095 455.625 453.905 455.625C454.304 454.291 452.646 454.092 451.901 453.419C436.881 440.069 421.799 426.793 406.758 413.464C399.905 407.382 399.842 401.5 406.465 395.209C418.398 383.875 436.451 383.434 449.382 394.431C464.296 407.109 479.032 419.976 493.863 432.748C495.972 434.566 498.155 436.278 500.307 438.042C500.58 438.63 500.853 439.208 501.126 439.796C501.294 439.502 501.451 439.219 501.619 438.924C501.451 439.208 501.273 439.502 501.105 439.786C501.598 439.061 501.955 438.326 501.315 437.496C496.718 425.784 493.296 413.684 489.601 401.679C487.492 394.82 490.777 388.707 497.442 386.07C511.569 380.461 526.253 386.249 533.085 399.988C539.068 412.014 545.197 423.978 551.264 435.962C552.135 437.685 552.891 439.355 555.189 439.733C564.845 441.33 574.491 443.084 584.336 441.992C594.339 440.889 600.111 435.605 601.108 426.95C601.56 422.991 600.51 420.06 596.816 417.728C576.013 404.609 555.326 391.291 534.649 377.972C532.665 376.691 530.65 376.05 528.331 375.85C523.639 375.451 518.969 374.537 514.277 374.369C492.624 373.603 469.712 356.513 468.914 326.441C470.09 315.801 472.504 314.047 482.979 315.402C489.475 316.253 496.035 316.568 502.564 317.114Z" fill="#F4F6FA"/>
<path d="M502.565 317.114C496.037 316.568 489.477 316.253 482.98 315.413C472.506 314.058 470.102 315.812 468.916 326.452C442.414 332.607 415.587 336.703 388.498 339.245C384.142 339.655 381.938 338.363 380.132 334.477C375.346 324.215 369.994 314.226 365.701 303.733C376.029 301.747 379.776 296.653 377.477 285.74C374.181 270.121 366.95 256.645 353.62 247.129C349.8 244.398 345.811 241.908 341.907 239.303C341.718 238.862 341.917 237.938 340.91 238.495L340.931 238.516C342.033 236.404 340.826 234.493 340.343 232.56C337.761 222.277 334.465 212.141 334.549 201.364C336.722 194.674 335.043 188.634 331.39 182.941C331.117 173.519 330.855 164.098 330.582 154.676C331.747 141.168 332.902 127.65 336.921 114.615C338.664 108.996 341.057 103.576 343.156 98.0616C345.685 93.6816 348.078 89.2176 350.776 84.9321C368.787 56.2783 403.674 42.9282 438.825 52.0768C471.498 60.5743 493.738 80.132 500.96 114.363C501.421 116.569 501.631 118.827 501.957 121.001C503.479 121.621 504.36 120.508 505.389 119.993C523.935 110.718 543.089 109.258 562.842 115.487C600.176 127.251 626.531 163.751 624.054 201.186C622.584 223.412 611.9 241.856 597.709 258.252C578.681 280.257 554.215 294.689 528.081 306.516C519.715 310.329 511.088 313.606 502.565 317.114Z" fill="#FFA000"/>
</svg>
