<svg width="100%" height="100%" viewBox="0 0 131 22" fill="none" xmlns="http://www.w3.org/2000/svg">
<path d="M24.9197 9.45956C24.8143 9.20115 24.6803 8.9555 24.527 8.72581C24.3706 8.49292 24.195 8.27917 23.9971 8.08137C23.7991 7.88358 23.5853 7.70811 23.3522 7.55179C23.1192 7.39547 22.8734 7.26467 22.618 7.15939C22.3594 7.05411 22.0944 6.97117 21.8199 6.91693C21.5453 6.8627 21.2708 6.83398 20.9898 6.83398C20.7089 6.83398 20.4344 6.8627 20.1598 6.91693C19.8853 6.97117 19.6203 7.05092 19.3617 7.15939C19.1031 7.26467 18.8573 7.39866 18.6275 7.55179C18.3944 7.70811 18.1805 7.88358 17.9826 8.08137C17.7847 8.27917 17.6091 8.49292 17.4527 8.72581C17.2962 8.95869 17.1653 9.20434 17.06 9.45956C16.9547 9.71478 16.8716 9.98277 16.8174 10.2571C16.7631 10.5315 16.7344 10.8059 16.7344 11.0866C16.7344 11.3673 16.7631 11.6417 16.8174 11.9161C16.8716 12.1904 16.9515 12.4552 17.06 12.7136C17.1653 12.972 17.2994 13.2177 17.4527 13.4474C17.6091 13.6803 17.7847 13.894 17.9826 14.0918C18.1805 14.2896 18.3944 14.4651 18.6275 14.6214C18.8605 14.7777 19.1063 14.9085 19.3617 15.0138C19.6203 15.1191 19.8853 15.202 20.1598 15.2563C20.4344 15.3105 20.7089 15.3392 20.9898 15.3392C21.2708 15.3392 21.5453 15.3105 21.8199 15.2563C22.0944 15.202 22.3594 15.1223 22.618 15.0138C22.8765 14.9085 23.1224 14.7745 23.3522 14.6214C23.5853 14.4651 23.7991 14.2896 23.9971 14.0918C24.195 13.894 24.3706 13.6803 24.527 13.4474C24.6834 13.2145 24.8143 12.9688 24.9197 12.7136C25.025 12.4552 25.108 12.1904 25.1623 11.9161C25.2166 11.6417 25.2453 11.3673 25.2453 11.0866C25.2453 10.8059 25.2166 10.5315 25.1623 10.2571C25.1048 9.98596 25.025 9.71798 24.9197 9.45956Z" fill="white"/>
<path d="M21.5487 0.182162V0.175781H21.1305H8.29704C3.71276 0.175781 0 3.91795 0 8.53744C0 12.2413 2.39111 15.3837 5.69843 16.4812L17.4528 21.3974L17.4369 21.3623C18.5893 21.777 19.8312 22.0003 21.1273 22.0003C27.1577 22.0003 32.0453 17.116 32.0453 11.0896C32.0485 5.20043 27.3844 0.402289 21.5487 0.182162ZM12.5397 9.36691C12.4855 9.64127 12.4057 9.90606 12.2971 10.1645C12.1918 10.4229 12.0577 10.6685 11.9044 10.8982C11.748 11.1311 11.5724 11.3449 11.3745 11.5427C11.1766 11.7405 10.9627 11.9159 10.7296 12.0722C10.4966 12.2286 10.2508 12.3594 9.99539 12.4646C9.73681 12.5699 9.47184 12.6529 9.1973 12.7071C8.92275 12.7613 8.6482 12.7901 8.36727 12.7901C8.08634 12.7901 7.8118 12.7613 7.53725 12.7071C7.2627 12.6529 6.99773 12.5731 6.73915 12.4646C6.48057 12.3562 6.23475 12.2254 6.0049 12.0722C5.77185 11.9159 5.55796 11.7405 5.36003 11.5427C5.16211 11.3449 4.98652 11.1311 4.8301 10.8982C4.67367 10.6653 4.54278 10.4197 4.43743 10.1645C4.33208 9.90606 4.24908 9.64127 4.19481 9.36691C4.14054 9.09255 4.11181 8.81818 4.11181 8.53744C4.11181 8.2567 4.14054 7.98234 4.19481 7.70797C4.24908 7.43361 4.32889 7.16882 4.43743 6.91041C4.54278 6.652 4.67686 6.40635 4.8301 6.17665C4.98652 5.94376 5.16211 5.73002 5.36003 5.53222C5.55796 5.33442 5.77185 5.15896 6.0049 5.00264C6.23794 4.84632 6.48376 4.71551 6.73915 4.61024C6.99773 4.50496 7.2627 4.42201 7.53725 4.36778C7.8118 4.31354 8.08634 4.28483 8.36727 4.28483C8.6482 4.28483 8.92275 4.31354 9.1973 4.36778C9.47184 4.42201 9.73681 4.50177 9.99539 4.61024C10.254 4.71551 10.4998 4.84951 10.7296 5.00264C10.9627 5.15896 11.1766 5.33442 11.3745 5.53222C11.5724 5.73002 11.748 5.94376 11.9044 6.17665C12.0609 6.40954 12.1918 6.65519 12.2971 6.91041C12.4025 7.16882 12.4855 7.43361 12.5397 7.70797C12.594 7.98234 12.6227 8.2567 12.6227 8.53744C12.6227 8.81499 12.594 9.09255 12.5397 9.36691ZM27.6653 12.4136C27.5791 12.8507 27.4482 13.2782 27.279 13.6897C27.1098 14.1012 26.8991 14.4936 26.6501 14.8669C26.4011 15.237 26.1202 15.5815 25.8041 15.8974C25.4881 16.2132 25.1433 16.4939 24.773 16.7428C24.4027 16.9916 24.01 17.199 23.595 17.3713C23.1832 17.5435 22.7554 17.6711 22.318 17.7573C21.8807 17.8434 21.4369 17.8881 20.99 17.8881C20.5431 17.8881 20.0993 17.8434 19.662 17.7573C19.2246 17.6711 18.7968 17.5403 18.385 17.3713C17.9732 17.199 17.5805 16.9916 17.207 16.7428C16.8367 16.4939 16.4919 16.2132 16.1759 15.8974C15.8598 15.5815 15.5789 15.237 15.3299 14.8669C15.0809 14.4968 14.8734 14.1044 14.701 13.6897C14.5286 13.2782 14.4009 12.8507 14.3147 12.4136C14.2285 11.9765 14.1838 11.5331 14.1838 11.0865C14.1838 10.6398 14.2285 10.1964 14.3147 9.75931C14.4009 9.32224 14.5318 8.89475 14.701 8.48321C14.8734 8.07166 15.0809 7.67926 15.3299 7.306C15.5789 6.93593 15.8598 6.59139 16.1759 6.27555C16.4919 5.95971 16.8367 5.67897 17.207 5.43013C17.5773 5.18129 17.97 4.97393 18.385 4.80165C18.7968 4.62938 19.2246 4.50177 19.662 4.41563C20.0993 4.32949 20.5431 4.28483 20.99 4.28483C21.4369 4.28483 21.8807 4.32949 22.318 4.41563C22.7554 4.50177 23.1832 4.63257 23.595 4.80165C24.0068 4.97393 24.3995 5.18129 24.773 5.43013C25.1433 5.67897 25.4881 5.95971 25.8041 6.27555C26.1202 6.59139 26.4011 6.93593 26.6501 7.306C26.8991 7.67607 27.1066 8.06847 27.279 8.48321C27.4514 8.89794 27.5791 9.32224 27.6653 9.75931C27.7515 10.1964 27.7962 10.6398 27.7962 11.0865C27.7962 11.5331 27.7515 11.9765 27.6653 12.4136Z" fill="white"/>
<path d="M38.0474 19.2468H42.7275V11.2616C42.7275 8.58176 43.7714 7.12062 45.4091 7.12062C47.018 7.12062 47.6437 8.52115 47.6437 10.3683V19.2468H52.3238V11.2616C52.3238 8.58176 53.3677 7.12062 55.0373 7.12062C56.6463 7.12062 57.272 8.52115 57.272 10.3683V19.2468H61.9521V9.17515C61.9521 5.50955 60.1643 3.27637 56.9432 3.27637C54.7372 3.27637 52.9176 4.31958 51.8737 6.40601C51.1873 4.40891 49.6071 3.27637 47.3117 3.27637C45.1952 3.27637 43.4362 4.25897 42.3922 6.16674V3.63368H38.041V19.2468H38.0474Z" fill="white"/>
<path d="M69.6448 11.4402C69.6448 8.81784 71.0463 6.91326 73.3703 6.91326C75.6944 6.91326 77.0671 8.82103 77.0671 11.4402C77.0671 14.0594 75.6944 15.9672 73.3703 15.9672C71.0463 15.9672 69.6448 14.0626 69.6448 11.4402ZM65.0254 11.4402C65.0254 16.4745 68.2752 19.6041 73.3735 19.6041C78.4718 19.6041 81.6897 16.4745 81.6897 11.4402C81.6897 6.40601 78.4686 3.27637 73.3735 3.27637C68.2784 3.27637 65.0254 6.40601 65.0254 11.4402Z" fill="white"/>
<path d="M95.1357 7.12065V3.6337H91.4676V0H86.995V2.6511C86.995 3.39443 86.6981 3.69432 85.833 3.69432H83.5664V7.12065H86.7875V14.3593C86.7875 18.2036 88.6647 19.4829 92.3327 19.4829C93.3766 19.4829 94.2705 19.3936 95.1357 19.2436V15.4919C94.5099 15.5812 93.913 15.6418 93.316 15.6418C91.8251 15.6418 91.4676 15.1346 91.4676 13.6447V7.12065H95.1357Z" fill="white"/>
<path d="M108.641 3.63379V11.3191C108.641 13.7916 107.626 15.7568 105.481 15.7568C103.514 15.7568 102.799 14.2063 102.799 11.8232V3.63379H98.1191V13.2556C98.1191 17.2179 99.9675 19.601 103.575 19.601C106.049 19.601 107.897 18.4972 108.97 16.4427V19.2437H113.321V3.63379H108.641Z" fill="white"/>
<path d="M116.033 14.388C116.362 18.1717 119.401 19.6009 123.516 19.6009C127.66 19.6009 130.999 18.261 130.999 14.8059C130.999 12.3335 129.301 10.8437 126.677 10.1577L123.13 9.29319C121.728 8.90717 121.131 8.51796 121.131 7.80334C121.131 7.02811 121.818 6.55276 123.187 6.55276C124.918 6.55276 126.08 7.23866 126.319 8.51796L130.613 8.31059C130.195 4.67689 126.855 3.27637 123.191 3.27637C119.762 3.27637 116.573 4.46952 116.573 7.98199C116.573 10.0971 117.706 11.855 120.509 12.5983L124.027 13.5203C125.757 13.9669 126.44 14.3529 126.44 15.0388C126.44 15.9608 125.278 16.3213 123.637 16.3213C121.492 16.3213 120.506 15.6067 120.298 14.2062L116.033 14.388Z" fill="white"/>
</svg>
