<svg width="100%" height="100%" viewBox="0 0 24 24" fill="none" xmlns="http://www.w3.org/2000/svg">
<path fill-rule="evenodd" clip-rule="evenodd" d="M12.5 0C8.60443 0 5.46875 3.18545 5.46875 7.14286V8.33333C4.17786 8.33333 3.125 9.4029 3.125 10.7143V22.619C3.125 23.9304 4.17786 25 5.46875 25H19.5312C20.8221 25 21.875 23.9304 21.875 22.619V10.7143C21.875 9.4029 20.8221 8.33333 19.5312 8.33333V7.14286C19.5312 3.18545 16.3956 0 12.5 0ZM12.5 2.38095C15.1688 2.38095 17.1875 4.43173 17.1875 7.14286V8.33333H7.8125V7.14286C7.8125 4.43173 9.83124 2.38095 12.5 2.38095ZM12.5 14.2857C13.7909 14.2857 14.8438 15.3553 14.8438 16.6667C14.8438 17.9781 13.7909 19.0476 12.5 19.0476C11.2091 19.0476 10.1562 17.9781 10.1562 16.6667C10.1562 15.3553 11.2091 14.2857 12.5 14.2857Z" fill="#9C9EB9"/>
</svg>
